<mxfile host="app.diagrams.net" modified="2023-08-24T10:02:42.357Z" agent="Mozilla/5.0 (Windows NT 10.0; Win64; x64) AppleWebKit/537.36 (KHTML, like Gecko) Chrome/115.0.0.0 Safari/537.36" etag="RZp28jQuQ1dhj6k0_yOQ" version="21.6.8" type="device">
  <diagram id="C5RBs43oDa-KdzZeNtuy" name="Page-1">
    <mxGraphModel dx="4197" dy="2317" grid="1" gridSize="10" guides="1" tooltips="1" connect="1" arrows="1" fold="1" page="1" pageScale="1" pageWidth="827" pageHeight="1169" math="0" shadow="0">
      <root>
        <mxCell id="WIyWlLk6GJQsqaUBKTNV-0" />
        <mxCell id="WIyWlLk6GJQsqaUBKTNV-1" parent="WIyWlLk6GJQsqaUBKTNV-0" />
        <mxCell id="xALUO3HwdJlkxT8yfgA3-319" value="" style="html=1;whiteSpace=wrap;strokeWidth=5;" parent="WIyWlLk6GJQsqaUBKTNV-1" vertex="1">
          <mxGeometry x="610" y="30" width="2130" height="2240" as="geometry" />
        </mxCell>
        <mxCell id="xALUO3HwdJlkxT8yfgA3-321" value="&lt;font style=&quot;font-size: 60px;&quot;&gt;ผู้ดูแลระบบ&lt;/font&gt;" style="shape=umlActor;verticalLabelPosition=bottom;verticalAlign=top;html=1;strokeWidth=3;" parent="WIyWlLk6GJQsqaUBKTNV-1" vertex="1">
          <mxGeometry x="100" y="960" width="160" height="240" as="geometry" />
        </mxCell>
        <mxCell id="xALUO3HwdJlkxT8yfgA3-324" value="&lt;font style=&quot;font-size: 34px;&quot;&gt;เข้าสู่ระบบ&lt;/font&gt;" style="ellipse;whiteSpace=wrap;html=1;strokeWidth=3;" parent="WIyWlLk6GJQsqaUBKTNV-1" vertex="1">
          <mxGeometry x="1470" y="510" width="370" height="114.5" as="geometry" />
        </mxCell>
        <mxCell id="xALUO3HwdJlkxT8yfgA3-325" value="&lt;font style=&quot;font-size: 34px;&quot;&gt;ตรวจสอบ&amp;nbsp; Username Password&lt;/font&gt;" style="ellipse;whiteSpace=wrap;html=1;strokeWidth=3;" parent="WIyWlLk6GJQsqaUBKTNV-1" vertex="1">
          <mxGeometry x="1087.5" y="150" width="455" height="145" as="geometry" />
        </mxCell>
        <mxCell id="xALUO3HwdJlkxT8yfgA3-327" value="&lt;font style=&quot;font-size: 25px;&quot;&gt;&amp;lt;&amp;lt;include&amp;gt;&amp;gt;&lt;/font&gt;" style="html=1;verticalAlign=bottom;labelBackgroundColor=none;endArrow=open;endFill=0;dashed=1;rounded=0;exitX=0.5;exitY=0;exitDx=0;exitDy=0;entryX=0.5;entryY=1;entryDx=0;entryDy=0;strokeWidth=3;" parent="WIyWlLk6GJQsqaUBKTNV-1" source="xALUO3HwdJlkxT8yfgA3-324" target="xALUO3HwdJlkxT8yfgA3-325" edge="1">
          <mxGeometry x="-0.503" y="-39" width="160" relative="1" as="geometry">
            <mxPoint x="814" y="535" as="sourcePoint" />
            <mxPoint x="974" y="535" as="targetPoint" />
            <mxPoint as="offset" />
          </mxGeometry>
        </mxCell>
        <mxCell id="xALUO3HwdJlkxT8yfgA3-330" value="&lt;font style=&quot;font-size: 34px;&quot;&gt;จัดการข้อมูลห้องเรียน&lt;/font&gt;" style="ellipse;whiteSpace=wrap;html=1;strokeWidth=3;" parent="WIyWlLk6GJQsqaUBKTNV-1" vertex="1">
          <mxGeometry x="1070" y="370" width="370" height="125" as="geometry" />
        </mxCell>
        <mxCell id="xALUO3HwdJlkxT8yfgA3-331" value="&lt;font style=&quot;font-size: 34px;&quot;&gt;&amp;nbsp;Import ข้อมูลนักศึกษาใหม่&lt;/font&gt;" style="ellipse;whiteSpace=wrap;html=1;strokeWidth=3;" parent="WIyWlLk6GJQsqaUBKTNV-1" vertex="1">
          <mxGeometry x="1230" y="670" width="380" height="110" as="geometry" />
        </mxCell>
        <mxCell id="xALUO3HwdJlkxT8yfgA3-333" value="&lt;font style=&quot;font-size: 60px;&quot;&gt;Use case diagram ระบบจองห้องเรียนออนไลน์&lt;/font&gt;" style="text;html=1;align=center;verticalAlign=middle;resizable=0;points=[];autosize=1;" parent="WIyWlLk6GJQsqaUBKTNV-1" vertex="1">
          <mxGeometry x="1130" y="40" width="1190" height="90" as="geometry" />
        </mxCell>
        <mxCell id="xALUO3HwdJlkxT8yfgA3-336" value="&lt;font style=&quot;font-size: 34px;&quot;&gt;&amp;nbsp; &amp;nbsp;Import ข้อมูลรายวิชาที่เปิดให้ลงทะเบียนในเทอมนั้นๆ&amp;nbsp;&lt;/font&gt;" style="ellipse;whiteSpace=wrap;html=1;strokeWidth=3;" parent="WIyWlLk6GJQsqaUBKTNV-1" vertex="1">
          <mxGeometry x="985" y="2057.5" width="520" height="200" as="geometry" />
        </mxCell>
        <mxCell id="xALUO3HwdJlkxT8yfgA3-337" value="&lt;font style=&quot;font-size: 34px;&quot;&gt;&amp;nbsp; Import ข้อมูลอาจารย์&lt;/font&gt;" style="ellipse;whiteSpace=wrap;html=1;strokeWidth=3;" parent="WIyWlLk6GJQsqaUBKTNV-1" vertex="1">
          <mxGeometry x="1510" y="1667.5" width="375" height="150" as="geometry" />
        </mxCell>
        <mxCell id="xALUO3HwdJlkxT8yfgA3-338" value="&lt;font style=&quot;font-size: 34px;&quot;&gt;&amp;nbsp; Import ข้อมูลวิชา&lt;/font&gt;" style="ellipse;whiteSpace=wrap;html=1;strokeWidth=3;" parent="WIyWlLk6GJQsqaUBKTNV-1" vertex="1">
          <mxGeometry x="1970" y="1678.75" width="325" height="150" as="geometry" />
        </mxCell>
        <mxCell id="xALUO3HwdJlkxT8yfgA3-341" value="&lt;font style=&quot;font-size: 34px;&quot;&gt; Import ข้อมูลการลงทะเบียนเรียน&amp;nbsp;&lt;/font&gt;" style="ellipse;whiteSpace=wrap;html=1;strokeWidth=3;" parent="WIyWlLk6GJQsqaUBKTNV-1" vertex="1">
          <mxGeometry x="1560" y="1937.5" width="500" height="140" as="geometry" />
        </mxCell>
        <mxCell id="xALUO3HwdJlkxT8yfgA3-342" value="&lt;font style=&quot;font-size: 34px;&quot;&gt;Import ข้อมูลรายชื่อนักศึกษาที่ลงทะเบียนเเต่ละคอร์ส&amp;nbsp;&lt;/font&gt;" style="ellipse;whiteSpace=wrap;html=1;strokeWidth=3;" parent="WIyWlLk6GJQsqaUBKTNV-1" vertex="1">
          <mxGeometry x="740" y="1817.5" width="620" height="200" as="geometry" />
        </mxCell>
        <mxCell id="xALUO3HwdJlkxT8yfgA3-343" value="&lt;font style=&quot;font-size: 34px;&quot;&gt;จัดการวันเริ่มต้น และวันสิ้นสุดภาคการศึกษา&lt;/font&gt;" style="ellipse;whiteSpace=wrap;html=1;strokeWidth=3;" parent="WIyWlLk6GJQsqaUBKTNV-1" vertex="1">
          <mxGeometry x="1765" y="900" width="495" height="150" as="geometry" />
        </mxCell>
        <mxCell id="xALUO3HwdJlkxT8yfgA3-344" value="&lt;font style=&quot;font-size: 34px;&quot;&gt;จัดการข้อมูลนักศึกษา&lt;/font&gt;" style="ellipse;whiteSpace=wrap;html=1;strokeWidth=3;" parent="WIyWlLk6GJQsqaUBKTNV-1" vertex="1">
          <mxGeometry x="1260" y="860" width="370" height="122.5" as="geometry" />
        </mxCell>
        <mxCell id="xALUO3HwdJlkxT8yfgA3-345" value="&lt;font style=&quot;font-size: 34px;&quot;&gt;จัดการข้อมูลอาจารย์&lt;/font&gt;" style="ellipse;whiteSpace=wrap;html=1;strokeWidth=3;" parent="WIyWlLk6GJQsqaUBKTNV-1" vertex="1">
          <mxGeometry x="1654" y="700" width="310" height="127.5" as="geometry" />
        </mxCell>
        <mxCell id="xALUO3HwdJlkxT8yfgA3-346" value="&lt;font style=&quot;font-size: 34px;&quot;&gt;จัดการข้อมูลวิชา&lt;/font&gt;" style="ellipse;whiteSpace=wrap;html=1;strokeWidth=3;" parent="WIyWlLk6GJQsqaUBKTNV-1" vertex="1">
          <mxGeometry x="980" y="520" width="370" height="125" as="geometry" />
        </mxCell>
        <mxCell id="xALUO3HwdJlkxT8yfgA3-348" value="&lt;font style=&quot;font-size: 34px;&quot;&gt;แสดงปฏิทินการใช้ห้องเรียน&lt;/font&gt;" style="ellipse;whiteSpace=wrap;html=1;strokeWidth=3;" parent="WIyWlLk6GJQsqaUBKTNV-1" vertex="1">
          <mxGeometry x="1800" y="1290" width="350" height="155" as="geometry" />
        </mxCell>
        <mxCell id="xALUO3HwdJlkxT8yfgA3-350" value="&lt;font style=&quot;font-size: 34px;&quot;&gt;จัดการวิชาที่เปิดสอนในเทอมนั้น ๆ&lt;/font&gt;" style="ellipse;whiteSpace=wrap;html=1;strokeWidth=3;" parent="WIyWlLk6GJQsqaUBKTNV-1" vertex="1">
          <mxGeometry x="1360" y="1008.75" width="380" height="130" as="geometry" />
        </mxCell>
        <mxCell id="xALUO3HwdJlkxT8yfgA3-351" value="&lt;font style=&quot;font-size: 34px;&quot;&gt; จัดการข้อมูลการลงทะเบียนเรียน&lt;/font&gt;" style="ellipse;whiteSpace=wrap;html=1;strokeWidth=3;" parent="WIyWlLk6GJQsqaUBKTNV-1" vertex="1">
          <mxGeometry x="1690" y="1150" width="360" height="112.5" as="geometry" />
        </mxCell>
        <mxCell id="xALUO3HwdJlkxT8yfgA3-354" value="&lt;font style=&quot;font-size: 34px;&quot;&gt;ตรวจสอบคำร้องจองห้องเรียน&lt;/font&gt;" style="ellipse;whiteSpace=wrap;html=1;strokeWidth=3;" parent="WIyWlLk6GJQsqaUBKTNV-1" vertex="1">
          <mxGeometry x="1315" y="1487.5" width="395" height="149" as="geometry" />
        </mxCell>
        <mxCell id="xALUO3HwdJlkxT8yfgA3-361" value="" style="endArrow=none;html=1;rounded=0;entryX=0;entryY=0.5;entryDx=0;entryDy=0;strokeWidth=3;" parent="WIyWlLk6GJQsqaUBKTNV-1" target="xALUO3HwdJlkxT8yfgA3-324" edge="1">
          <mxGeometry width="50" height="50" relative="1" as="geometry">
            <mxPoint x="360" y="1120" as="sourcePoint" />
            <mxPoint x="1410" y="405" as="targetPoint" />
          </mxGeometry>
        </mxCell>
        <mxCell id="xALUO3HwdJlkxT8yfgA3-364" value="" style="endArrow=none;html=1;rounded=0;entryX=0;entryY=0.5;entryDx=0;entryDy=0;strokeWidth=3;" parent="WIyWlLk6GJQsqaUBKTNV-1" target="xALUO3HwdJlkxT8yfgA3-325" edge="1">
          <mxGeometry width="50" height="50" relative="1" as="geometry">
            <mxPoint x="350" y="1080" as="sourcePoint" />
            <mxPoint x="1350" y="335" as="targetPoint" />
          </mxGeometry>
        </mxCell>
        <mxCell id="xALUO3HwdJlkxT8yfgA3-370" value="" style="endArrow=none;html=1;rounded=0;entryX=0;entryY=0.5;entryDx=0;entryDy=0;strokeWidth=3;" parent="WIyWlLk6GJQsqaUBKTNV-1" target="xALUO3HwdJlkxT8yfgA3-330" edge="1">
          <mxGeometry width="50" height="50" relative="1" as="geometry">
            <mxPoint x="380" y="1080" as="sourcePoint" />
            <mxPoint x="590" y="465" as="targetPoint" />
          </mxGeometry>
        </mxCell>
        <mxCell id="xALUO3HwdJlkxT8yfgA3-372" value="" style="endArrow=none;html=1;rounded=0;entryX=0;entryY=0.5;entryDx=0;entryDy=0;strokeWidth=3;" parent="WIyWlLk6GJQsqaUBKTNV-1" target="xALUO3HwdJlkxT8yfgA3-346" edge="1">
          <mxGeometry width="50" height="50" relative="1" as="geometry">
            <mxPoint x="370" y="1100" as="sourcePoint" />
            <mxPoint x="1645" y="620" as="targetPoint" />
          </mxGeometry>
        </mxCell>
        <mxCell id="xALUO3HwdJlkxT8yfgA3-374" value="" style="endArrow=none;html=1;rounded=0;entryX=0;entryY=0.5;entryDx=0;entryDy=0;strokeWidth=3;" parent="WIyWlLk6GJQsqaUBKTNV-1" target="xALUO3HwdJlkxT8yfgA3-345" edge="1">
          <mxGeometry width="50" height="50" relative="1" as="geometry">
            <mxPoint x="350" y="1120" as="sourcePoint" />
            <mxPoint x="575" y="775" as="targetPoint" />
          </mxGeometry>
        </mxCell>
        <mxCell id="xALUO3HwdJlkxT8yfgA3-375" value="" style="endArrow=none;html=1;rounded=0;entryX=0.045;entryY=0.773;entryDx=0;entryDy=0;strokeWidth=3;entryPerimeter=0;" parent="WIyWlLk6GJQsqaUBKTNV-1" target="xALUO3HwdJlkxT8yfgA3-331" edge="1">
          <mxGeometry width="50" height="50" relative="1" as="geometry">
            <mxPoint x="360" y="1100" as="sourcePoint" />
            <mxPoint x="1225" y="800" as="targetPoint" />
          </mxGeometry>
        </mxCell>
        <mxCell id="xALUO3HwdJlkxT8yfgA3-376" value="" style="endArrow=none;html=1;rounded=0;entryX=0;entryY=0.5;entryDx=0;entryDy=0;strokeWidth=3;" parent="WIyWlLk6GJQsqaUBKTNV-1" target="xALUO3HwdJlkxT8yfgA3-344" edge="1">
          <mxGeometry width="50" height="50" relative="1" as="geometry">
            <mxPoint x="350" y="1110" as="sourcePoint" />
            <mxPoint x="770" y="912.5" as="targetPoint" />
          </mxGeometry>
        </mxCell>
        <mxCell id="xALUO3HwdJlkxT8yfgA3-378" value="" style="endArrow=none;html=1;rounded=0;entryX=0;entryY=0.5;entryDx=0;entryDy=0;strokeWidth=3;" parent="WIyWlLk6GJQsqaUBKTNV-1" target="xALUO3HwdJlkxT8yfgA3-351" edge="1">
          <mxGeometry width="50" height="50" relative="1" as="geometry">
            <mxPoint x="350" y="1090" as="sourcePoint" />
            <mxPoint x="1045" y="967.5" as="targetPoint" />
          </mxGeometry>
        </mxCell>
        <mxCell id="xALUO3HwdJlkxT8yfgA3-379" value="" style="endArrow=none;html=1;rounded=0;entryX=0;entryY=0;entryDx=0;entryDy=0;strokeWidth=3;" parent="WIyWlLk6GJQsqaUBKTNV-1" target="xALUO3HwdJlkxT8yfgA3-341" edge="1">
          <mxGeometry width="50" height="50" relative="1" as="geometry">
            <mxPoint x="340" y="1100" as="sourcePoint" />
            <mxPoint x="1250" y="1102.5" as="targetPoint" />
          </mxGeometry>
        </mxCell>
        <mxCell id="xALUO3HwdJlkxT8yfgA3-380" value="" style="endArrow=none;html=1;rounded=0;entryX=0;entryY=0.5;entryDx=0;entryDy=0;strokeWidth=3;" parent="WIyWlLk6GJQsqaUBKTNV-1" target="xALUO3HwdJlkxT8yfgA3-350" edge="1">
          <mxGeometry width="50" height="50" relative="1" as="geometry">
            <mxPoint x="360" y="1120" as="sourcePoint" />
            <mxPoint x="1340" y="1173" as="targetPoint" />
          </mxGeometry>
        </mxCell>
        <mxCell id="xALUO3HwdJlkxT8yfgA3-382" value="" style="endArrow=none;html=1;rounded=0;entryX=0;entryY=0.5;entryDx=0;entryDy=0;strokeWidth=3;" parent="WIyWlLk6GJQsqaUBKTNV-1" target="xALUO3HwdJlkxT8yfgA3-343" edge="1">
          <mxGeometry width="50" height="50" relative="1" as="geometry">
            <mxPoint x="340" y="1090" as="sourcePoint" />
            <mxPoint x="717" y="1307.5" as="targetPoint" />
          </mxGeometry>
        </mxCell>
        <mxCell id="xALUO3HwdJlkxT8yfgA3-385" value="" style="endArrow=none;html=1;rounded=0;entryX=0;entryY=0.5;entryDx=0;entryDy=0;strokeWidth=3;" parent="WIyWlLk6GJQsqaUBKTNV-1" target="xALUO3HwdJlkxT8yfgA3-348" edge="1">
          <mxGeometry width="50" height="50" relative="1" as="geometry">
            <mxPoint x="360" y="1100" as="sourcePoint" />
            <mxPoint x="1287" y="1435" as="targetPoint" />
          </mxGeometry>
        </mxCell>
        <mxCell id="xALUO3HwdJlkxT8yfgA3-386" value="" style="endArrow=none;html=1;rounded=0;entryX=0;entryY=0.5;entryDx=0;entryDy=0;strokeWidth=3;" parent="WIyWlLk6GJQsqaUBKTNV-1" target="xALUO3HwdJlkxT8yfgA3-354" edge="1">
          <mxGeometry width="50" height="50" relative="1" as="geometry">
            <mxPoint x="340" y="1090" as="sourcePoint" />
            <mxPoint x="1141" y="1532.5" as="targetPoint" />
          </mxGeometry>
        </mxCell>
        <mxCell id="xALUO3HwdJlkxT8yfgA3-391" value="&lt;font style=&quot;font-size: 60px;&quot;&gt;&amp;nbsp;ผู้ใช้งาน&lt;/font&gt;" style="shape=umlActor;verticalLabelPosition=bottom;verticalAlign=top;html=1;strokeWidth=3;" parent="WIyWlLk6GJQsqaUBKTNV-1" vertex="1">
          <mxGeometry x="2920" y="960" width="150" height="227.5" as="geometry" />
        </mxCell>
        <mxCell id="xALUO3HwdJlkxT8yfgA3-392" value="&lt;font style=&quot;font-size: 34px;&quot;&gt;จองห้องเรียน&lt;/font&gt;" style="ellipse;whiteSpace=wrap;html=1;strokeWidth=3;" parent="WIyWlLk6GJQsqaUBKTNV-1" vertex="1">
          <mxGeometry x="2330" y="330" width="332.5" height="105" as="geometry" />
        </mxCell>
        <mxCell id="xALUO3HwdJlkxT8yfgA3-393" value="&lt;font style=&quot;font-size: 34px;&quot;&gt;ยกเลิกการจองห้องเรียน&lt;/font&gt;" style="ellipse;whiteSpace=wrap;html=1;strokeWidth=3;" parent="WIyWlLk6GJQsqaUBKTNV-1" vertex="1">
          <mxGeometry x="1740" y="390" width="328" height="97.5" as="geometry" />
        </mxCell>
        <mxCell id="xALUO3HwdJlkxT8yfgA3-395" value="&lt;font style=&quot;font-size: 34px;&quot;&gt;ตรวจสอบวันเวลาที่จอง&lt;/font&gt;" style="ellipse;whiteSpace=wrap;html=1;strokeWidth=3;" parent="WIyWlLk6GJQsqaUBKTNV-1" vertex="1">
          <mxGeometry x="1870" y="230" width="310" height="120" as="geometry" />
        </mxCell>
        <mxCell id="xALUO3HwdJlkxT8yfgA3-399" value="&lt;font style=&quot;font-size: 25px;&quot;&gt;&amp;lt;&amp;lt;include&amp;gt;&amp;gt;&lt;/font&gt;" style="html=1;verticalAlign=bottom;labelBackgroundColor=none;endArrow=open;endFill=0;dashed=1;rounded=0;exitX=0.056;exitY=0.295;exitDx=0;exitDy=0;entryX=0.995;entryY=0.588;entryDx=0;entryDy=0;exitPerimeter=0;entryPerimeter=0;strokeWidth=3;" parent="WIyWlLk6GJQsqaUBKTNV-1" source="xALUO3HwdJlkxT8yfgA3-392" target="xALUO3HwdJlkxT8yfgA3-395" edge="1">
          <mxGeometry x="-0.2371" y="-19" width="160" relative="1" as="geometry">
            <mxPoint x="1731" y="246" as="sourcePoint" />
            <mxPoint x="1690" y="185" as="targetPoint" />
            <mxPoint as="offset" />
          </mxGeometry>
        </mxCell>
        <mxCell id="xALUO3HwdJlkxT8yfgA3-401" value="" style="endArrow=none;html=1;rounded=0;exitX=1;exitY=1;exitDx=0;exitDy=0;strokeWidth=3;" parent="WIyWlLk6GJQsqaUBKTNV-1" source="xALUO3HwdJlkxT8yfgA3-392" edge="1">
          <mxGeometry width="50" height="50" relative="1" as="geometry">
            <mxPoint x="1070" y="675" as="sourcePoint" />
            <mxPoint x="2890" y="1090" as="targetPoint" />
          </mxGeometry>
        </mxCell>
        <mxCell id="xALUO3HwdJlkxT8yfgA3-403" value="" style="endArrow=none;html=1;rounded=0;exitX=1;exitY=1;exitDx=0;exitDy=0;strokeWidth=3;" parent="WIyWlLk6GJQsqaUBKTNV-1" source="xALUO3HwdJlkxT8yfgA3-395" edge="1">
          <mxGeometry width="50" height="50" relative="1" as="geometry">
            <mxPoint x="1465" y="270" as="sourcePoint" />
            <mxPoint x="2880" y="1080" as="targetPoint" />
          </mxGeometry>
        </mxCell>
        <mxCell id="xALUO3HwdJlkxT8yfgA3-404" value="" style="endArrow=none;html=1;rounded=0;exitX=1;exitY=1;exitDx=0;exitDy=0;strokeWidth=3;" parent="WIyWlLk6GJQsqaUBKTNV-1" source="xALUO3HwdJlkxT8yfgA3-324" edge="1">
          <mxGeometry width="50" height="50" relative="1" as="geometry">
            <mxPoint x="1174" y="225" as="sourcePoint" />
            <mxPoint x="2880" y="1100" as="targetPoint" />
          </mxGeometry>
        </mxCell>
        <mxCell id="xALUO3HwdJlkxT8yfgA3-405" value="" style="endArrow=none;html=1;rounded=0;exitX=1;exitY=0.5;exitDx=0;exitDy=0;strokeWidth=3;" parent="WIyWlLk6GJQsqaUBKTNV-1" source="xALUO3HwdJlkxT8yfgA3-393" edge="1">
          <mxGeometry width="50" height="50" relative="1" as="geometry">
            <mxPoint x="960" y="375" as="sourcePoint" />
            <mxPoint x="2870" y="1090" as="targetPoint" />
          </mxGeometry>
        </mxCell>
        <mxCell id="xALUO3HwdJlkxT8yfgA3-406" value="" style="endArrow=none;html=1;rounded=0;exitX=1;exitY=0.5;exitDx=0;exitDy=0;strokeWidth=3;" parent="WIyWlLk6GJQsqaUBKTNV-1" source="xALUO3HwdJlkxT8yfgA3-348" edge="1">
          <mxGeometry width="50" height="50" relative="1" as="geometry">
            <mxPoint x="1190" y="567.5" as="sourcePoint" />
            <mxPoint x="2890" y="1110" as="targetPoint" />
          </mxGeometry>
        </mxCell>
        <mxCell id="xALUO3HwdJlkxT8yfgA3-408" value="&lt;font style=&quot;font-size: 34px;&quot;&gt;ตรวจสอบข้อมูลการจอง&lt;/font&gt;" style="ellipse;whiteSpace=wrap;html=1;strokeWidth=3;" parent="WIyWlLk6GJQsqaUBKTNV-1" vertex="1">
          <mxGeometry x="1898" y="570" width="340" height="100" as="geometry" />
        </mxCell>
        <mxCell id="xALUO3HwdJlkxT8yfgA3-409" value="" style="endArrow=none;html=1;rounded=0;exitX=0.709;exitY=0.999;exitDx=0;exitDy=0;exitPerimeter=0;strokeWidth=3;" parent="WIyWlLk6GJQsqaUBKTNV-1" source="xALUO3HwdJlkxT8yfgA3-408" edge="1">
          <mxGeometry width="50" height="50" relative="1" as="geometry">
            <mxPoint x="1390" y="590" as="sourcePoint" />
            <mxPoint x="2880" y="1090" as="targetPoint" />
          </mxGeometry>
        </mxCell>
        <mxCell id="xALUO3HwdJlkxT8yfgA3-410" value="&lt;font style=&quot;font-size: 25px;&quot;&gt;&amp;lt;&amp;lt;include&amp;gt;&amp;gt;&lt;/font&gt;" style="html=1;verticalAlign=bottom;labelBackgroundColor=none;endArrow=open;endFill=0;dashed=1;rounded=0;exitX=0.764;exitY=1.018;exitDx=0;exitDy=0;entryX=0.5;entryY=0;entryDx=0;entryDy=0;exitPerimeter=0;strokeWidth=3;" parent="WIyWlLk6GJQsqaUBKTNV-1" source="xALUO3HwdJlkxT8yfgA3-393" target="xALUO3HwdJlkxT8yfgA3-408" edge="1">
          <mxGeometry x="-0.2824" y="-36" width="160" relative="1" as="geometry">
            <mxPoint x="1790" y="545" as="sourcePoint" />
            <mxPoint x="1950" y="545" as="targetPoint" />
            <mxPoint as="offset" />
          </mxGeometry>
        </mxCell>
        <mxCell id="HueHFeiNzXYVLrIqd-gB-1" value="&lt;font style=&quot;font-size: 34px;&quot;&gt;พิมพ์ใบจองห้อง&lt;/font&gt;" style="ellipse;whiteSpace=wrap;html=1;strokeWidth=3;" parent="WIyWlLk6GJQsqaUBKTNV-1" vertex="1">
          <mxGeometry x="1945" y="1470" width="315" height="143.5" as="geometry" />
        </mxCell>
        <mxCell id="HueHFeiNzXYVLrIqd-gB-2" value="&lt;font style=&quot;font-size: 25px;&quot;&gt;&amp;lt;&amp;lt;include&amp;gt;&amp;gt;&lt;/font&gt;" style="html=1;verticalAlign=bottom;labelBackgroundColor=none;endArrow=open;endFill=0;dashed=1;rounded=0;exitX=0.998;exitY=0.424;exitDx=0;exitDy=0;entryX=0.178;entryY=0.895;entryDx=0;entryDy=0;exitPerimeter=0;entryPerimeter=0;strokeWidth=3;" parent="WIyWlLk6GJQsqaUBKTNV-1" source="xALUO3HwdJlkxT8yfgA3-354" target="HueHFeiNzXYVLrIqd-gB-1" edge="1">
          <mxGeometry x="0.3279" y="-67" width="160" relative="1" as="geometry">
            <mxPoint x="1460" y="1455" as="sourcePoint" />
            <mxPoint x="1620" y="1455" as="targetPoint" />
            <mxPoint as="offset" />
          </mxGeometry>
        </mxCell>
        <mxCell id="HueHFeiNzXYVLrIqd-gB-4" value="" style="endArrow=none;html=1;rounded=0;entryX=-0.015;entryY=0.44;entryDx=0;entryDy=0;entryPerimeter=0;strokeWidth=3;" parent="WIyWlLk6GJQsqaUBKTNV-1" target="HueHFeiNzXYVLrIqd-gB-1" edge="1">
          <mxGeometry width="50" height="50" relative="1" as="geometry">
            <mxPoint x="340" y="1090" as="sourcePoint" />
            <mxPoint x="1143" y="1639.5" as="targetPoint" />
          </mxGeometry>
        </mxCell>
        <mxCell id="HueHFeiNzXYVLrIqd-gB-5" value="&lt;font style=&quot;font-size: 25px;&quot;&gt;&amp;lt;&amp;lt;include&amp;gt;&amp;gt;&lt;/font&gt;" style="html=1;verticalAlign=bottom;labelBackgroundColor=none;endArrow=open;endFill=0;dashed=1;rounded=0;exitX=0.5;exitY=1;exitDx=0;exitDy=0;entryX=1;entryY=0.5;entryDx=0;entryDy=0;strokeWidth=3;" parent="WIyWlLk6GJQsqaUBKTNV-1" source="xALUO3HwdJlkxT8yfgA3-341" target="xALUO3HwdJlkxT8yfgA3-336" edge="1">
          <mxGeometry x="-0.131" y="40" width="160" relative="1" as="geometry">
            <mxPoint x="1280" y="1145" as="sourcePoint" />
            <mxPoint x="1440" y="1145" as="targetPoint" />
            <mxPoint x="1" as="offset" />
          </mxGeometry>
        </mxCell>
        <mxCell id="HueHFeiNzXYVLrIqd-gB-6" value="&lt;font style=&quot;font-size: 25px;&quot;&gt;&amp;lt;&amp;lt;include&amp;gt;&amp;gt;&lt;/font&gt;" style="html=1;verticalAlign=bottom;labelBackgroundColor=none;endArrow=open;endFill=0;dashed=1;rounded=0;exitX=0.5;exitY=0;exitDx=0;exitDy=0;entryX=0.5;entryY=1;entryDx=0;entryDy=0;strokeWidth=3;" parent="WIyWlLk6GJQsqaUBKTNV-1" source="xALUO3HwdJlkxT8yfgA3-341" target="xALUO3HwdJlkxT8yfgA3-337" edge="1">
          <mxGeometry x="-0.3333" y="-41" width="160" relative="1" as="geometry">
            <mxPoint x="1280" y="1045" as="sourcePoint" />
            <mxPoint x="1440" y="1045" as="targetPoint" />
            <mxPoint y="-1" as="offset" />
          </mxGeometry>
        </mxCell>
        <mxCell id="HueHFeiNzXYVLrIqd-gB-7" value="&lt;font style=&quot;font-size: 25px;&quot;&gt;&amp;lt;&amp;lt;include&amp;gt;&amp;gt;&lt;/font&gt;" style="html=1;verticalAlign=bottom;labelBackgroundColor=none;endArrow=open;endFill=0;dashed=1;rounded=0;exitX=1;exitY=0;exitDx=0;exitDy=0;entryX=0;entryY=1;entryDx=0;entryDy=0;strokeWidth=3;" parent="WIyWlLk6GJQsqaUBKTNV-1" source="xALUO3HwdJlkxT8yfgA3-341" target="xALUO3HwdJlkxT8yfgA3-338" edge="1">
          <mxGeometry x="-0.3862" y="-56" width="160" relative="1" as="geometry">
            <mxPoint x="1290" y="1145" as="sourcePoint" />
            <mxPoint x="1393" y="911" as="targetPoint" />
            <mxPoint as="offset" />
          </mxGeometry>
        </mxCell>
        <mxCell id="HueHFeiNzXYVLrIqd-gB-8" value="&lt;font style=&quot;font-size: 25px;&quot;&gt;&amp;lt;&amp;lt;include&amp;gt;&amp;gt;&lt;/font&gt;" style="html=1;verticalAlign=bottom;labelBackgroundColor=none;endArrow=open;endFill=0;dashed=1;rounded=0;exitX=0;exitY=0.375;exitDx=0;exitDy=0;entryX=1;entryY=0.5;entryDx=0;entryDy=0;exitPerimeter=0;strokeWidth=3;" parent="WIyWlLk6GJQsqaUBKTNV-1" source="xALUO3HwdJlkxT8yfgA3-341" target="xALUO3HwdJlkxT8yfgA3-342" edge="1">
          <mxGeometry x="0.0056" y="33" width="160" relative="1" as="geometry">
            <mxPoint x="1280" y="1045" as="sourcePoint" />
            <mxPoint x="1440" y="1045" as="targetPoint" />
            <mxPoint as="offset" />
          </mxGeometry>
        </mxCell>
        <mxCell id="0xSO1fAXeYyDGxUCajZk-6" value="&lt;font style=&quot;font-size: 34px;&quot;&gt;&lt;font style=&quot;font-size: 34px;&quot;&gt;เเก้ไข&amp;nbsp;&lt;/font&gt;Password&lt;/font&gt;" style="ellipse;whiteSpace=wrap;html=1;strokeWidth=3;" parent="WIyWlLk6GJQsqaUBKTNV-1" vertex="1">
          <mxGeometry x="2130" y="1060" width="410" height="120" as="geometry" />
        </mxCell>
        <mxCell id="0xSO1fAXeYyDGxUCajZk-7" value="" style="endArrow=none;html=1;rounded=0;exitX=1;exitY=0.5;exitDx=0;exitDy=0;strokeWidth=3;" parent="WIyWlLk6GJQsqaUBKTNV-1" source="0xSO1fAXeYyDGxUCajZk-6" edge="1">
          <mxGeometry width="50" height="50" relative="1" as="geometry">
            <mxPoint x="2149" y="680" as="sourcePoint" />
            <mxPoint x="2890" y="1100" as="targetPoint" />
          </mxGeometry>
        </mxCell>
      </root>
    </mxGraphModel>
  </diagram>
</mxfile>
